<?xml version="1.0" encoding="UTF-8"?>
<svg id="Layer_1" xmlns="http://www.w3.org/2000/svg" version="1.1" viewBox="0 0 900 700">
  <!-- Generator: Adobe Illustrator 29.8.3, SVG Export Plug-In . SVG Version: 2.1.1 Build 3)  -->
  <defs>
    <style>
      .st0, .st1, .st2, .st3 {
        fill: none;
      }

      .st4 {
        fill: #7e3c1b;
      }

      .st5 {
        font-size: 14px;
      }

      .st5, .st6, .st7, .st8, .st9, .st10 {
        isolation: isolate;
      }

      .st5, .st11 {
        fill: #fff;
      }

      .st5, .st8, .st9, .st10 {
        font-family: Arial-BoldMT, Arial;
        font-weight: 700;
      }

      .st6, .st7 {
        font-family: ArialMT, Arial;
      }

      .st6, .st9 {
        fill: #4b5563;
        font-size: 11px;
      }

      .st7, .st8 {
        font-size: 13px;
      }

      .st7, .st8, .st10 {
        fill: #1f2937;
      }

      .st1 {
        stroke-dasharray: 12;
      }

      .st1, .st2, .st3 {
        stroke: #000;
        stroke-miterlimit: 10;
      }

      .st12 {
        font-family: MyriadPro-Regular, 'Myriad Pro';
        font-size: 12px;
      }

      .st11 {
        stroke: #2563eb;
        stroke-width: 2px;
      }

      .st13 {
        fill: #52ab47;
      }

      .st14 {
        fill: #6b7280;
      }

      .st15 {
        fill: #fef3c7;
        stroke: #f59e0b;
      }

      .st15, .st16 {
        stroke-width: 1.5px;
      }

      .st17 {
        fill: #1e40af;
      }

      .st18 {
        fill: #2563eb;
      }

      .st16 {
        fill: #eff6ff;
        stroke: #3b82f6;
      }

      .st3 {
        stroke-dasharray: 12 12;
      }

      .st10 {
        font-size: 18px;
      }
    </style>
  </defs>
  <text class="st10" transform="translate(351.3 30)"><tspan x="0" y="0">UnisonDB Architecture</tspan></text>
  <text class="st6" transform="translate(287.3 50)"><tspan x="0" y="0">Log-Native Database for Edge Computing &amp; Real-Time Replication</tspan></text>
  <rect class="st11" x="50" y="70" width="800" height="600" rx="8" ry="8"/>
  <rect class="st18" x="50" y="70" width="800" height="40" rx="8" ry="8"/>
  <text class="st5" transform="translate(385.8 95)"><tspan x="0" y="0">UnisonDB Instance</tspan></text>
  <rect class="st16" x="70" y="130" width="760" height="80" rx="6" ry="6"/>
  <text class="st8" transform="translate(80 150)"><tspan x="0" y="0">Client APIs</tspan></text>
  <rect class="st15" x="100" y="160" width="180" height="40" rx="4" ry="4"/>
  <text class="st7" transform="translate(142.2 183)"><tspan x="0" y="0">HTTP REST API</tspan></text>
  <rect class="st15" x="310" y="160" width="180" height="40" rx="4" ry="4"/>
  <text class="st7" transform="translate(363 183)"><tspan x="0" y="0">Transactions</tspan></text>
  <rect class="st15" x="520" y="160" width="180" height="40" rx="4" ry="4"/>
  <text class="st7" transform="translate(571.3 183)"><tspan x="0" y="0">Admin / Stats</tspan></text>
  <path class="st0" d=""/>
  <path class="st14" d="M450,230"/>
  <rect class="st16" x="70" y="230" width="760" height="80" rx="6" ry="6"/>
  <text class="st8" transform="translate(80 250)"><tspan x="0" y="0">Storage Models</tspan></text>
  <rect class="st15" x="100" y="260" width="180" height="40" rx="4" ry="4"/>
  <text class="st7" transform="translate(160.5 283)"><tspan x="0" y="0">Key-Value</tspan></text>
  <rect class="st15" x="310" y="260" width="180" height="40" rx="4" ry="4"/>
  <text class="st7" transform="translate(360.6 283)"><tspan x="0" y="0">Wide-Column</tspan></text>
  <rect class="st15" x="520" y="260" width="180" height="40" rx="4" ry="4"/>
  <text class="st7" transform="translate(553.6 283)"><tspan x="0" y="0">Large Object (LOB)</tspan></text>
  <path class="st0" d=""/>
  <path class="st14" d="M450,330"/>
  <rect class="st16" x="70" y="330" width="760" height="120" rx="6" ry="6"/>
  <text class="st8" transform="translate(80 350)"><tspan x="0" y="0">Storage Engine (dbkernel)</tspan></text>
  <text class="st9" transform="translate(100 375)"><tspan x="0" y="0">Write Path:</tspan></text>
  <rect class="st13" x="100" y="380" width="100" height="30" rx="4" ry="4"/>
  <text class="st5" transform="translate(106.8 400)"><tspan x="0" y="0">WAL Append</tspan></text>
  <text class="st7" transform="translate(203.5 398)"><tspan x="0" y="0">→</tspan></text>
  <rect class="st4" x="230" y="380" width="100" height="30" rx="4" ry="4"/>
  <text class="st5" transform="translate(246.3 400)"><tspan x="0" y="0">MemTable</tspan></text>
  <text class="st7" transform="translate(333.5 398)"><tspan x="0" y="0">→</tspan></text>
  <rect class="st17" x="360" y="380" width="120" height="30" rx="4" ry="4"/>
  <text class="st5" transform="translate(369.6 400)"><tspan x="0" y="0">B+Tree (LMDB)</tspan></text>
  <text class="st9" transform="translate(520 375)"><tspan x="0" y="0">Read Path:</tspan></text>
  <rect class="st4" x="520" y="380" width="100" height="30" rx="4" ry="4"/>
  <text class="st5" transform="translate(536.3 400)"><tspan x="0" y="0">MemTable</tspan></text>
  <rect class="st17" x="650" y="380" width="100" height="30" rx="4" ry="4"/>
  <text class="st5" transform="translate(676.5 400)"><tspan x="0" y="0">B+Tree</tspan></text>
  <text class="st7" transform="translate(753.5 398)"><tspan x="0" y="0">→</tspan></text>
  <text class="st6" transform="translate(774 398)"><tspan x="0" y="0">Response</tspan></text>
  <text class="st6" transform="translate(100 430)"><tspan x="0" y="0">Durability: WAL with fsync | Persistence: LMDB B+Tree | Recovery: WAL Replay</tspan></text>
  <path class="st0" d=""/>
  <path class="st14" d="M450,470"/>
  <rect class="st16" x="70" y="470" width="760" height="180" rx="6" ry="6"/>
  <text class="st8" transform="translate(80 490)"><tspan x="0" y="0">Distribution Layer</tspan></text>
  <rect class="st11" x="100" y="505" width="300" height="130" rx="4" ry="4"/>
  <rect class="st18" x="100" y="505" width="300" height="30" rx="4" ry="4"/>
  <text class="st5" transform="translate(194.8 525)"><tspan x="0" y="0">gRPC Replicator</tspan></text>
  <text class="st6" transform="translate(120 555)"><tspan x="0" y="0">• WAL segment streaming</tspan></text>
  <text class="st6" transform="translate(120 575)"><tspan x="0" y="0">• TLS/mTLS authentication</tspan></text>
  <text class="st6" transform="translate(120 595)"><tspan x="0" y="0">• At-least-once delivery</tspan></text>
  <text class="st6" transform="translate(120 615)"><tspan x="0" y="0">• Durable replication</tspan></text>
  <rect class="st11" x="430" y="505" width="300" height="130" rx="4" ry="4"/>
  <rect class="st18" x="430" y="505" width="300" height="30" rx="4" ry="4"/>
  <text class="st5" transform="translate(545.9 525)"><tspan x="0" y="0">Watch API</tspan></text>
  <text class="st6" transform="translate(450 555)"><tspan x="0" y="0">• Change event notifications</tspan></text>
  <text class="st6" transform="translate(450 575)"><tspan x="0" y="0">• Per-namespace streams</tspan></text>
  <text class="st6" transform="translate(450 595)"><tspan x="0" y="0">• At-most-once (best-effort)</tspan></text>
  <text class="st6" transform="translate(450 615)"><tspan x="0" y="0">• Local applications only</tspan></text>
  <path class="st0" d=""/>
  <path class="st18" d="M250,660"/>
  <text class="st9" transform="translate(166.7 692.9)"><tspan x="0" y="0">Remote Relayers</tspan></text>
  <path class="st0" d=""/>
  <path class="st18" d="M580,660"/>
  <text class="st9" transform="translate(762.2 577.2)"><tspan x="0" y="0">Local </tspan><tspan x="0" y="13.2">Applications</tspan></text>
  <text class="st12" transform="translate(630 398)"><tspan x="0" y="0">+</tspan></text>
  <g>
    <line class="st2" x1="430" y1="210" x2="430" y2="224"/>
    <path d="M430,230c-1.1-2.8-2.9-6.4-4.8-8.5l4.8,1.7,4.8-1.7c-1.9,2.2-3.7,5.7-4.8,8.5Z"/>
  </g>
  <g>
    <line class="st2" x1="436.5" y1="310" x2="436.5" y2="324"/>
    <path d="M436.5,330c-1.1-2.8-2.9-6.4-4.8-8.5l4.8,1.7,4.8-1.7c-1.9,2.2-3.7,5.7-4.8,8.5Z"/>
  </g>
  <g>
    <line class="st2" x1="436.5" y1="450" x2="436.5" y2="461.8"/>
    <path d="M436.5,460.1l3.6-2.2h0c0,.1-2.3,6-2.3,6-.5,2-.9,4.1-1.4,6.1-.5-2-.9-4.1-1.4-6.1l-2.3-5.9h0c0-.1,3.6,2.1,3.6,2.1Z"/>
  </g>
  <g>
    <line class="st2" x1="230" y1="638.9" x2="230" y2="678.4"/>
    <g>
      <path d="M235.1,677.6c-2.1,1.2-3.8,3.2-5.1,5.3-1.3-2.1-3-4-5.1-5.3v-1.2c2,1.3,3.7,2.9,5.1,4.8,1.3-1.9,3.1-3.6,5.1-4.9v1.3Z"/>
      <path d="M235.1,674.6c-2.1,1.2-3.8,3.2-5.1,5.3-1.3-2.1-3-4-5.1-5.3v-1.2c2,1.3,3.7,2.9,5.1,4.8,1.3-1.9,3.1-3.6,5.1-4.9v1.3Z"/>
    </g>
  </g>
  <g>
    <line class="st3" x1="730" y1="587.1" x2="746.8" y2="587"/>
    <polygon points="745.4 592 754 587 745.3 582.1 745.4 592"/>
  </g>
  <line class="st1" x1="881" y1="700" x2="905" y2="699.9"/>
</svg>