<?xml version="1.0" encoding="UTF-8"?>
<svg id="Layer_1" xmlns="http://www.w3.org/2000/svg" version="1.1" viewBox="0 0 1043.2 578.5">
  <!-- Generator: Adobe Illustrator 29.8.3, SVG Export Plug-In . SVG Version: 2.1.1 Build 3)  -->
  <defs>
    <style>
      .st0 {
        fill: #2563eb;
        stroke: #1e40af;
      }

      .st0, .st1, .st2, .st3 {
        stroke-width: 2px;
      }

      .st1 {
        fill: #10b981;
        stroke: #059669;
      }

      .st4, .st5, .st6, .st7, .st8 {
        font-family: Arial-BoldMT, Arial;
        font-weight: 700;
      }

      .st4, .st5, .st6, .st7, .st8, .st9 {
        isolation: isolate;
      }

      .st4, .st6 {
        font-size: 11px;
      }

      .st4, .st7 {
        fill: #1f2937;
      }

      .st5 {
        fill: #111827;
        font-size: 18px;
      }

      .st6, .st8 {
        fill: #fff;
      }

      .st7 {
        font-size: 13px;
      }

      .st2 {
        stroke: #10b981;
      }

      .st2, .st3 {
        fill: none;
      }

      .st3 {
        stroke: #2563eb;
      }

      .st8, .st9 {
        font-size: 9px;
      }

      .st10 {
        fill: #f59e0b;
        stroke: #d97706;
      }

      .st10, .st11 {
        stroke-width: 1.5px;
      }

      .st11 {
        fill: #f9fafb;
        stroke: #d1d5db;
      }

      .st9 {
        fill: #6b7280;
        font-family: ArialMT, Arial;
      }
    </style>
  </defs>
  <text class="st5" transform="translate(355 30)"><tspan x="0" y="0">UnisonDB Deployment Topologies</tspan></text>
  <rect class="st11" x="20" y="70" width="230" height="220" rx="6" ry="6"/>
  <text class="st7" transform="translate(86.2 95)"><tspan x="0" y="0">1. Single Server</tspan></text>
  <text class="st9" transform="translate(82.2 112)"><tspan x="0" y="0">Development / Small Apps</tspan></text>
  <rect class="st0" x="75" y="130" width="120" height="70" rx="4" ry="4"/>
  <text class="st6" transform="translate(108.4 155)"><tspan x="0" y="0">UnisonDB</tspan></text>
  <text class="st6" transform="translate(95 170)"><tspan x="0" y="0">Replicator Mode</tspan></text>
  <text class="st6" transform="translate(95.5 185)"><tspan x="0" y="0">Reads + Writes</tspan></text>
  <rect class="st11" x="270" y="70" width="230" height="220" rx="6" ry="6"/>
  <text class="st7" transform="translate(319.4 95)"><tspan x="0" y="0">2. Replicator + Replicas</tspan></text>
  <text class="st9" transform="translate(358.2 112)"><tspan x="0" y="0">Read Scaling</tspan></text>
  <rect class="st0" x="325" y="130" width="120" height="50" rx="4" ry="4"/>
  <text class="st6" transform="translate(364.5 152)"><tspan x="0" y="0">Replicator</tspan></text>
  <text class="st6" transform="translate(342.2 167)"><tspan x="0" y="0">US-East • Writes</tspan></text>
  <line class="st3" x1="355" y1="180" x2="325" y2="200"/>
  <line class="st3" x1="385" y1="180" x2="385" y2="200"/>
  <line class="st3" x1="415" y1="180" x2="445" y2="200"/>
  <text class="st9" transform="translate(300.1 190)"><tspan x="0" y="0">gRPC</tspan></text>
  <rect class="st1" x="285" y="205" width="60" height="40" rx="3" ry="3"/>
  <text class="st6" transform="translate(295.1 222)"><tspan x="0" y="0">Relayer</tspan></text>
  <text class="st6" transform="translate(296.1 235)"><tspan x="0" y="0">Europe</tspan></text>
  <rect class="st1" x="355" y="205" width="60" height="40" rx="3" ry="3"/>
  <text class="st6" transform="translate(365.1 222)"><tspan x="0" y="0">Relayer</tspan></text>
  <text class="st6" transform="translate(373.4 235)"><tspan x="0" y="0">Asia</tspan></text>
  <rect class="st1" x="425" y="205" width="60" height="40" rx="3" ry="3"/>
  <text class="st6" transform="translate(435.1 222)"><tspan x="0" y="0">Relayer</tspan></text>
  <text class="st6" transform="translate(432.5 235)"><tspan x="0" y="0">US-West</tspan></text>
  <rect class="st11" x="520" y="70" width="230" height="220" rx="6" ry="6"/>
  <text class="st7" transform="translate(579.7 95)"><tspan x="0" y="0">3. Hub-and-Spoke</tspan></text>
  <text class="st9" transform="translate(601.5 112)"><tspan x="0" y="0">Edge Computing</tspan></text>
  <rect class="st0" x="575" y="130" width="120" height="45" rx="4" ry="4"/>
  <text class="st6" transform="translate(603.8 149)"><tspan x="0" y="0">Central Hub</tspan></text>
  <text class="st6" transform="translate(609.7 164)"><tspan x="0" y="0">All Writes</tspan></text>
  <line class="st3" x1="605" y1="175" x2="565" y2="195"/>
  <line class="st3" x1="635" y1="175" x2="635" y2="195"/>
  <line class="st3" x1="665" y1="175" x2="705" y2="195"/>
  <rect class="st1" x="540" y="200" width="50" height="35" rx="3" ry="3"/>
  <text class="st6" transform="translate(547 215)"><tspan x="0" y="0">Edge 1</tspan></text>
  <text class="st6" transform="translate(545.6 227)"><tspan x="0" y="0">Store A</tspan></text>
  <rect class="st1" x="610" y="200" width="50" height="35" rx="3" ry="3"/>
  <text class="st6" transform="translate(617 215)"><tspan x="0" y="0">Edge 2</tspan></text>
  <text class="st6" transform="translate(615.4 227)"><tspan x="0" y="0">Store B</tspan></text>
  <rect class="st1" x="680" y="200" width="50" height="35" rx="3" ry="3"/>
  <text class="st6" transform="translate(687 215)"><tspan x="0" y="0">Edge 3</tspan></text>
  <text class="st6" transform="translate(685.4 227)"><tspan x="0" y="0">Store C</tspan></text>
  <line class="st2" x1="565" y1="235" x2="565" y2="250"/>
  <line class="st2" x1="635" y1="235" x2="635" y2="250"/>
  <line class="st2" x1="705" y1="235" x2="705" y2="250"/>
  <rect class="st10" x="540" y="255" width="50" height="20" rx="2" ry="2"/>
  <text class="st6" transform="translate(553.4 268)"><tspan x="0" y="0">POS</tspan></text>
  <rect class="st10" x="610" y="255" width="50" height="20" rx="2" ry="2"/>
  <text class="st6" transform="translate(623.4 268)"><tspan x="0" y="0">POS</tspan></text>
  <rect class="st10" x="680" y="255" width="50" height="20" rx="2" ry="2"/>
  <text class="st6" transform="translate(693.4 268)"><tspan x="0" y="0">POS</tspan></text>
  <rect class="st11" x="770" y="70" width="230" height="220" rx="6" ry="6"/>
  <text class="st7" transform="translate(828.7 95)"><tspan x="0" y="0">4. Multi-Hop Relay</tspan></text>
  <text class="st9" transform="translate(835 112)"><tspan x="0" y="0">Deep Edge / Hierarchical</tspan></text>
  <rect class="st0" x="825" y="130" width="120" height="35" rx="4" ry="4"/>
  <text class="st6" transform="translate(836.7 150)"><tspan x="0" y="0">Replicator(Cloud)</tspan></text>
  <line class="st3" x1="885" y1="165" x2="885" y2="180"/>
  <rect class="st1" x="825" y="185" width="120" height="30" rx="3" ry="3"/>
  <text class="st6" transform="translate(834.4 203)"><tspan x="0" y="0">Tier 1: Regional DC</tspan></text>
  <line class="st3" x1="865" y1="215" x2="835" y2="235"/>
  <line class="st3" x1="905" y1="215" x2="935" y2="235"/>
  <rect class="st1" x="800" y="240" width="70" height="25" rx="3" ry="3"/>
  <text class="st6" transform="translate(804 255)"><tspan x="0" y="0">Tier 2: West</tspan></text>
  <rect class="st1" x="900" y="240" width="70" height="25" rx="3" ry="3"/>
  <text class="st6" transform="translate(905.4 255)"><tspan x="0" y="0">Tier 2: East</tspan></text>
  <rect class="st11" x="290" y="322" width="480" height="220" rx="6" ry="6"/>
  <text class="st7" transform="translate(415.7 347)"><tspan x="0" y="0">5. Hybrid: Replication + Local Events</tspan></text>
  <text class="st9" transform="translate(447.7 364)"><tspan x="0" y="0">Microservices / Event-Driven Architecture</tspan></text>
  <rect class="st11" x="450" y="382" width="160" height="80" rx="4" ry="4"/>
  <text class="st4" transform="translate(490.9 397)"><tspan x="0" y="0">Replicator Server</tspan></text>
  <rect class="st0" x="470" y="407" width="120" height="30" rx="3" ry="3"/>
  <text class="st6" transform="translate(489.7 425)"><tspan x="0" y="0">Storage Engine</tspan></text>
  <line class="st3" x1="500" y1="437" x2="500" y2="457"/>
  <text class="st9" transform="translate(470 453.1)"><tspan x="0" y="0">gRPC</tspan></text>
  <line class="st2" x1="560" y1="437" x2="560" y2="457"/>
  <text class="st9" transform="translate(565 453.1)"><tspan x="0" y="0">Watch API</tspan></text>
  <rect class="st11" x="330" y="462" width="140" height="70" rx="4" ry="4"/>
  <text class="st4" transform="translate(355.4 479)"><tspan x="0" y="0">Remote Relayers</tspan></text>
  <rect class="st1" x="345" y="487" width="110" height="35" rx="3" ry="3"/>
  <text class="st6" transform="translate(362.4 508)"><tspan x="0" y="0">Read Replicas</tspan></text>
  <rect class="st11" x="590" y="462" width="160" height="70" rx="4" ry="4"/>
  <text class="st4" transform="translate(621.3 479)"><tspan x="0" y="0">Local Applications</tspan></text>
  <rect class="st10" x="600" y="487" width="45" height="18" rx="2" ry="2"/>
  <text class="st6" transform="translate(605.5 499)"><tspan x="0" y="0">Cache</tspan></text>
  <rect class="st10" x="655" y="487" width="45" height="18" rx="2" ry="2"/>
  <text class="st8" transform="translate(657.5 499)"><tspan x="0" y="0">Analytics</tspan></text>
  <rect class="st10" x="710" y="487" width="30" height="18" rx="2" ry="2"/>
  <text class="st6" transform="translate(711.9 499)"><tspan x="0" y="0">Logs</tspan></text>
</svg>