<?xml version="1.0" encoding="UTF-8"?>
<svg id="Layer_1" xmlns="http://www.w3.org/2000/svg" version="1.1" viewBox="0 0 1000 600">
  <!-- Generator: Adobe Illustrator 29.8.3, SVG Export Plug-In . SVG Version: 2.1.1 Build 3)  -->
  <defs>
    <style>
      .st0 {
        font-size: 14px;
      }

      .st0, .st1, .st2, .st3, .st4, .st5, .st6 {
        isolation: isolate;
      }

      .st0, .st2, .st3, .st5, .st6 {
        font-weight: 700;
      }

      .st0, .st2, .st5, .st6 {
        font-family: Arial-BoldMT, Arial;
      }

      .st0, .st5 {
        fill: #fff;
      }

      .st1 {
        font-family: ArialMT, Arial;
      }

      .st1, .st5 {
        font-size: 10px;
      }

      .st1, .st6 {
        fill: #6b7280;
      }

      .st7 {
        fill: #fef3c7;
        stroke: #f59e0b;
      }

      .st7, .st8 {
        stroke-width: 2px;
      }

      .st9 {
        fill: #3b82f6;
      }

      .st10 {
        fill: #1e40af;
      }

      .st2 {
        fill: #111827;
        font-size: 22px;
      }

      .st3 {
        fill: #92400e;
        font-family: CourierNewPS-BoldMT, 'Courier New';
        font-size: 13px;
      }

      .st8 {
        fill: #eff6ff;
        stroke: #3b82f6;
      }

      .st11 {
        fill: #ef4444;
      }

      .st12 {
        fill: #10b981;
      }

      .st13 {
        fill: #f59e0b;
      }

      .st4 {
        fill: #1f2937;
        font-family: CourierNewPSMT, 'Courier New';
        font-size: 11px;
      }

      .st6 {
        font-size: 12px;
      }
    </style>
  </defs>
  <text class="st2" transform="translate(394.3 35)"><tspan x="0" y="0">UnisonDB HTTP API</tspan></text>
  <rect class="st7" x="250" y="70" width="500" height="40" rx="4" ry="4"/>
  <text class="st3" transform="translate(344 93)"><tspan x="0" y="0">http://localhost:8080/api/v1/{namespace}</tspan></text>
  <rect class="st10" x="30" y="130" width="450" height="30" rx="4" ry="4"/>
  <text class="st0" transform="translate(182.6 150)"><tspan x="0" y="0">Key-Value Operations</tspan></text>
  <rect class="st8" x="30" y="170" width="450" height="35" rx="3" ry="3"/>
  <rect class="st9" x="40" y="177" width="40" height="20" rx="2" ry="2"/>
  <text class="st5" transform="translate(50 191)"><tspan x="0" y="0">PUT</tspan></text>
  <text class="st4" transform="translate(90 191)"><tspan x="0" y="0">/kv/{key}</tspan></text>
  <text class="st1" transform="translate(280 191)"><tspan x="0" y="0">Store key-value</tspan></text>
  <rect class="st8" x="30" y="210" width="450" height="35" rx="3" ry="3"/>
  <rect class="st12" x="40" y="217" width="40" height="20" rx="2" ry="2"/>
  <text class="st5" transform="translate(49.7 231)"><tspan x="0" y="0">GET</tspan></text>
  <text class="st4" transform="translate(90 231)"><tspan x="0" y="0">/kv/{key}</tspan></text>
  <text class="st1" transform="translate(280 231)"><tspan x="0" y="0">Retrieve value</tspan></text>
  <rect class="st8" x="30" y="250" width="450" height="35" rx="3" ry="3"/>
  <rect class="st11" x="40" y="257" width="55" height="20" rx="2" ry="2"/>
  <text class="st5" transform="translate(47.3 271)"><tspan x="0" y="0">DELETE</tspan></text>
  <text class="st4" transform="translate(105 271)"><tspan x="0" y="0">/kv/{key}</tspan></text>
  <text class="st1" transform="translate(280 271)"><tspan x="0" y="0">Delete key</tspan></text>
  <rect class="st8" x="30" y="290" width="450" height="35" rx="3" ry="3"/>
  <rect class="st13" x="40" y="297" width="45" height="20" rx="2" ry="2"/>
  <text class="st5" transform="translate(48.4 311)"><tspan x="0" y="0">POST</tspan></text>
  <text class="st4" transform="translate(95 311)"><tspan x="0" y="0">/kv/batch</tspan></text>
  <text class="st1" transform="translate(280 311)"><tspan x="0" y="0">Batch operations</tspan></text>
  <rect class="st10" x="520" y="130" width="450" height="30" rx="4" ry="4"/>
  <text class="st0" transform="translate(661.1 150)"><tspan x="0" y="0">Wide-Column Operations</tspan></text>
  <rect class="st8" x="520" y="170" width="450" height="35" rx="3" ry="3"/>
  <rect class="st9" x="530" y="177" width="40" height="20" rx="2" ry="2"/>
  <text class="st5" transform="translate(540 191)"><tspan x="0" y="0">PUT</tspan></text>
  <text class="st4" transform="translate(580 191)"><tspan x="0" y="0">/row/{rowKey}</tspan></text>
  <text class="st1" transform="translate(750 191)"><tspan x="0" y="0">Store row with columns</tspan></text>
  <rect class="st8" x="520" y="210" width="450" height="35" rx="3" ry="3"/>
  <rect class="st12" x="530" y="217" width="40" height="20" rx="2" ry="2"/>
  <text class="st5" transform="translate(539.7 231)"><tspan x="0" y="0">GET</tspan></text>
  <text class="st4" transform="translate(580 231)"><tspan x="0" y="0">/row/{rowKey}</tspan></text>
  <text class="st1" transform="translate(750 231)"><tspan x="0" y="0">Get all columns</tspan></text>
  <rect class="st8" x="520" y="250" width="450" height="35" rx="3" ry="3"/>
  <rect class="st11" x="530" y="257" width="55" height="20" rx="2" ry="2"/>
  <text class="st5" transform="translate(537.3 271)"><tspan x="0" y="0">DELETE</tspan></text>
  <text class="st4" transform="translate(595 271)"><tspan x="0" y="0">/row/{rowKey}</tspan></text>
  <text class="st1" transform="translate(750 271)"><tspan x="0" y="0">Delete entire row</tspan></text>
  <rect class="st8" x="520" y="290" width="450" height="35" rx="3" ry="3"/>
  <rect class="st13" x="530" y="297" width="45" height="20" rx="2" ry="2"/>
  <text class="st5" transform="translate(538.4 311)"><tspan x="0" y="0">POST</tspan></text>
  <text class="st4" transform="translate(585 311)"><tspan x="0" y="0">/row/batch</tspan></text>
  <text class="st1" transform="translate(750 311)"><tspan x="0" y="0">Batch row operations</tspan></text>
  <rect class="st10" x="30" y="350" width="450" height="30" rx="4" ry="4"/>
  <text class="st0" transform="translate(176.8 370)"><tspan x="0" y="0">Transaction Operations</tspan></text>
  <rect class="st8" x="30" y="390" width="450" height="35" rx="3" ry="3"/>
  <rect class="st13" x="40" y="397" width="45" height="20" rx="2" ry="2"/>
  <text class="st5" transform="translate(48.4 411)"><tspan x="0" y="0">POST</tspan></text>
  <text class="st4" transform="translate(95 411)"><tspan x="0" y="0">/tx/begin</tspan></text>
  <text class="st1" transform="translate(280 411)"><tspan x="0" y="0">Start transaction</tspan></text>
  <rect class="st8" x="30" y="430" width="450" height="35" rx="3" ry="3"/>
  <rect class="st13" x="40" y="437" width="45" height="20" rx="2" ry="2"/>
  <text class="st5" transform="translate(48.4 451)"><tspan x="0" y="0">POST</tspan></text>
  <text class="st4" transform="translate(95 451)"><tspan x="0" y="0">/tx/{txnId}/kv</tspan></text>
  <text class="st1" transform="translate(280 451)"><tspan x="0" y="0">Append KV to transaction</tspan></text>
  <rect class="st8" x="30" y="470" width="450" height="35" rx="3" ry="3"/>
  <rect class="st13" x="40" y="477" width="45" height="20" rx="2" ry="2"/>
  <text class="st5" transform="translate(48.4 491)"><tspan x="0" y="0">POST</tspan></text>
  <text class="st4" transform="translate(95 491)"><tspan x="0" y="0">/tx/{txnId}/commit</tspan></text>
  <text class="st1" transform="translate(280 491)"><tspan x="0" y="0">Commit transaction</tspan></text>
  <rect class="st10" x="520" y="350" width="450" height="30" rx="4" ry="4"/>
  <text class="st0" transform="translate(680.4 370)"><tspan x="0" y="0">Backup &amp; Metadata</tspan></text>
  <rect class="st8" x="520" y="390" width="450" height="35" rx="3" ry="3"/>
  <rect class="st13" x="530" y="397" width="45" height="20" rx="2" ry="2"/>
  <text class="st5" transform="translate(538.4 411)"><tspan x="0" y="0">POST</tspan></text>
  <text class="st4" transform="translate(585 411)"><tspan x="0" y="0">/wal/backup</tspan></text>
  <text class="st1" transform="translate(750 411)"><tspan x="0" y="0">Backup WAL segments</tspan></text>
  <rect class="st8" x="520" y="430" width="450" height="35" rx="3" ry="3"/>
  <rect class="st13" x="530" y="437" width="45" height="20" rx="2" ry="2"/>
  <text class="st5" transform="translate(538.4 451)"><tspan x="0" y="0">POST</tspan></text>
  <text class="st4" transform="translate(585 451)"><tspan x="0" y="0">/btree/backup</tspan></text>
  <text class="st1" transform="translate(750 451)"><tspan x="0" y="0">Backup B-Tree snapshot</tspan></text>
  <rect class="st8" x="520" y="470" width="450" height="35" rx="3" ry="3"/>
  <rect class="st12" x="530" y="477" width="40" height="20" rx="2" ry="2"/>
  <text class="st5" transform="translate(539.7 491)"><tspan x="0" y="0">GET</tspan></text>
  <text class="st4" transform="translate(580 491)"><tspan x="0" y="0">/stats</tspan></text>
  <text class="st1" transform="translate(750 491)"><tspan x="0" y="0">Engine statistics</tspan></text>
  <text class="st6" transform="translate(30 535)"><tspan x="0" y="0">HTTP Methods:</tspan></text>
  <rect class="st12" x="140" y="523" width="40" height="18" rx="2" ry="2"/>
  <text class="st5" transform="translate(149.7 535)"><tspan x="0" y="0">GET</tspan></text>
  <text class="st1" transform="translate(190 535)"><tspan x="0" y="0">Read</tspan></text>
  <rect class="st13" x="240" y="523" width="40" height="18" rx="2" ry="2"/>
  <text class="st5" transform="translate(246.4 535)"><tspan x="0" y="0">POST</tspan></text>
  <text class="st1" transform="translate(290 535)"><tspan x="0" y="0">Create/Action</tspan></text>
  <rect class="st9" x="370" y="523" width="40" height="18" rx="2" ry="2"/>
  <text class="st5" transform="translate(380 535)"><tspan x="0" y="0">PUT</tspan></text>
  <text class="st1" transform="translate(420 535)"><tspan x="0" y="0">Update</tspan></text>
  <rect class="st11" x="490" y="523" width="55" height="18" rx="2" ry="2"/>
  <text class="st5" transform="translate(497.3 535)"><tspan x="0" y="0">DELETE</tspan></text>
  <text class="st1" transform="translate(555 535)"><tspan x="0" y="0">Delete</tspan></text>
  <text class="st1" transform="translate(420.8 585.4)"><tspan x="0" y="0">All values must be base64-encoded</tspan></text>
</svg>