<?xml version="1.0" encoding="UTF-8"?>
<svg id="Layer_1" data-name="Layer 1" xmlns="http://www.w3.org/2000/svg" xmlns:xlink="http://www.w3.org/1999/xlink" viewBox="0 0 508.9 450">
  <defs>
    <style>
      .cls-1 {
        fill: #99c2e8;
        filter: url(#outer-glow-1);
        opacity: .4;
      }

      .cls-2 {
        fill: #1d293b;
      }

      .cls-3 {
        stroke: #4aa5dc;
      }

      .cls-3, .cls-4 {
        fill: none;
        stroke-width: 20px;
      }

      .cls-3, .cls-4, .cls-5 {
        stroke-miterlimit: 10;
      }

      .cls-6 {
        fill: #facd18;
      }

      .cls-4 {
        stroke: #e1f4fd;
      }

      .cls-5 {
        fill: #fff;
        stroke: #231f20;
      }

      .cls-7 {
        fill: #fcd34d;
      }
    </style>
    <filter id="outer-glow-1" x="184.32" y="113.38" width="137.76" height="130.56" filterUnits="userSpaceOnUse">
      <feOffset dx="0" dy="0"/>
      <feGaussianBlur result="blur" stdDeviation="5"/>
      <feFlood flood-color="#231f20" flood-opacity=".75"/>
      <feComposite in2="blur" operator="in"/>
      <feComposite in="SourceGraphic"/>
    </filter>
  </defs>
  <rect class="cls-5" x="-.23" width="509.13" height="450"/>
  <g>
    <path class="cls-1" d="M215.85,142.77c21.29-19.28,55.32-18.82,76.01,1.03,20.68,19.86,20.19,51.58-1.11,70.87-21.29,19.28-55.32,18.82-76.01-1.03-20.68-19.86-20.19-51.58,1.11-70.87Z"/>
    <path class="cls-3" d="M352.33,89.04c53.12,51,51.85,132.49-2.85,182.02-54.7,49.53-142.1,48.34-195.22-2.66-53.12-51-51.85-132.49,2.85-182.02"/>
    <path class="cls-4" d="M157.11,86.38c54.7-49.53,142.1-48.34,195.22,2.66"/>
  </g>
  <polygon class="cls-6" points="125.45 173.38 105.45 172.81 113.85 188.57 125.45 173.38"/>
  <polygon class="cls-6" points="401.69 173.53 381.35 173.88 391.1 189.81 401.69 173.53"/>
  <polygon class="cls-6" points="269.37 307.66 248.53 297.34 248.53 317.98 269.37 307.66"/>
  <path class="cls-2" d="M54.45,384.11v-24.23h12.54v25.13c0,4.71,2.47,7.31,7.76,7.31s7.85-2.6,7.85-7.31v-25.13h12.11v24.23c0,10.21-6.48,15.89-19.95,15.89s-20.3-5.68-20.3-15.89Z"/>
  <path class="cls-2" d="M106.21,369.31h10.23l.94,3.99h.34c3.67-2.54,8.27-4.71,14.58-4.71,9.55,0,13.81,4.65,13.81,12.2v18.49h-12.54v-17.34c0-3.99-1.62-5.8-6.23-5.8-3.41,0-5.63,1.09-8.61,3.14v20h-12.54v-29.97Z"/>
  <polygon class="cls-2" points="174.85 376.26 157.88 376.26 157.88 369.31 187.38 369.31 187.38 399.28 174.85 399.28 174.85 376.26"/>
  <path class="cls-7" d="M172.21,359.22c0-3.26,3.5-5.56,8.36-5.56s8.36,2.3,8.36,5.56-3.5,5.38-8.36,5.38-8.36-2.11-8.36-5.38Z"/>
  <path class="cls-2" d="M206.74,395.41l5.37-5.56c5.2,2.3,11,3.56,17.05,3.56,4.61,0,6.74-1.09,6.74-2.54,0-1.69-2.13-2.3-10.4-3.56-11.51-1.75-16.12-4.71-16.12-9.36,0-5.56,7.42-9.36,19.44-9.36,7.59,0,13.9,2.12,18.33,4.11l-5.63,5.32c-4.26-1.81-9.12-2.84-13.81-2.84-3.92,0-5.88.97-5.88,2.36,0,1.69,2.64,2.05,9.81,3.2,13.05,2.12,16.63,4.71,16.63,9.61,0,5.44-7.25,9.67-20.81,9.67-7.59,0-15.35-2.05-20.72-4.59Z"/>
  <path class="cls-2" d="M257.3,384.29c0-9.97,10.4-15.71,21.57-15.71s21.58,5.74,21.58,15.71-10.4,15.71-21.58,15.71-21.57-5.74-21.57-15.71ZM287.58,384.29c0-5.2-2.9-8.52-8.7-8.52s-8.7,3.32-8.7,8.52,2.9,8.52,8.7,8.52,8.7-3.32,8.7-8.52Z"/>
  <path class="cls-2" d="M310.51,369.31h10.23l.94,3.99h.34c3.67-2.54,8.27-4.71,14.58-4.71,9.55,0,13.81,4.65,13.81,12.2v18.49h-12.54v-17.34c0-3.99-1.62-5.8-6.22-5.8-3.41,0-5.63,1.09-8.61,3.14v20h-12.54v-29.97Z"/>
  <path class="cls-2" d="M361.42,359.89h15.35c16.2,0,26.78,5.98,26.78,19.51s-10.57,19.88-26.01,19.88h-16.12v-39.39ZM376.08,392.09c8.7,0,14.58-3.26,14.58-12.69s-5.88-12.32-14.58-12.32h-2.05v25.01h2.05Z"/>
  <path class="cls-2" d="M412.83,359.89h18.68c11.51,0,20.38,2.23,20.38,9.79,0,3.5-2.98,7.31-9.55,8.52v.24c7.93,1.03,12.11,3.99,12.11,9.24,0,8.03-9.29,11.6-21.32,11.6h-20.3v-39.39ZM430.91,375.71c6.14,0,8.7-1.81,8.7-4.83s-2.73-4.05-8.61-4.05h-5.63v8.88h5.54ZM432.11,392.33c6.82,0,10.06-1.75,10.06-5.32s-3.15-4.89-10.06-4.89h-6.74v10.21h6.74Z"/>
</svg>